<?xml version="1.0" encoding="UTF-8"?>
<svg xmlns="http://www.w3.org/2000/svg" xmlns:xlink="http://www.w3.org/1999/xlink" width="20px" height="20px" viewBox="0 0 20 20" version="1.1">
<g id="surface1">
<path style=" stroke:none;fill-rule:nonzero;fill:rgb(0%,0%,0%);fill-opacity:1;" d="M 9.667969 3.734375 C 8.523438 3.851562 7.617188 4.269531 6.835938 5.039062 C 6.125 5.738281 5.652344 6.71875 5.527344 7.738281 L 5.503906 7.921875 L 5.273438 7.9375 C 4.851562 7.96875 4.53125 8.304688 4.53125 8.714844 L 4.53125 8.898438 L 3.722656 8.914062 C 2.980469 8.929688 2.878906 8.941406 2.558594 9.039062 C 1.136719 9.46875 0.136719 10.695312 0.015625 12.152344 C -0.015625 12.515625 0.0273438 12.628906 0.207031 12.695312 C 0.28125 12.71875 0.917969 12.734375 1.957031 12.734375 L 3.59375 12.734375 L 3.617188 12.839844 C 3.730469 13.3125 4.160156 13.757812 4.664062 13.929688 L 4.84375 13.992188 L 4.84375 14.511719 C 4.84375 14.8125 4.863281 15.074219 4.886719 15.128906 C 4.945312 15.257812 5.078125 15.3125 5.328125 15.3125 L 5.53125 15.3125 L 5.621094 15.527344 C 5.734375 15.800781 6.050781 16.097656 6.335938 16.195312 C 6.636719 16.300781 7.003906 16.285156 7.277344 16.160156 C 7.558594 16.03125 7.832031 15.753906 7.917969 15.503906 L 7.988281 15.3125 L 8.382812 15.3125 C 8.78125 15.3125 8.78125 15.3125 8.804688 15.414062 C 8.882812 15.71875 9.296875 16.125 9.625 16.21875 C 9.832031 16.277344 10.167969 16.277344 10.375 16.21875 C 10.703125 16.125 11.117188 15.71875 11.195312 15.414062 C 11.21875 15.3125 11.21875 15.3125 11.617188 15.3125 L 12.011719 15.3125 L 12.082031 15.503906 C 12.167969 15.753906 12.441406 16.03125 12.722656 16.160156 C 12.996094 16.285156 13.363281 16.300781 13.664062 16.195312 C 13.949219 16.097656 14.265625 15.800781 14.378906 15.527344 L 14.46875 15.3125 L 14.671875 15.3125 C 14.921875 15.3125 15.054688 15.257812 15.113281 15.128906 C 15.136719 15.074219 15.15625 14.8125 15.15625 14.515625 L 15.15625 13.992188 L 15.289062 13.96875 C 15.519531 13.925781 15.882812 13.714844 16.066406 13.519531 C 16.246094 13.328125 16.410156 13.039062 16.460938 12.839844 L 16.484375 12.734375 L 18.082031 12.734375 C 19.09375 12.734375 19.71875 12.71875 19.792969 12.695312 C 19.972656 12.628906 20.015625 12.515625 19.984375 12.152344 C 19.863281 10.695312 18.863281 9.46875 17.441406 9.039062 C 17.121094 8.941406 17.019531 8.929688 16.28125 8.914062 L 15.46875 8.898438 L 15.46875 8.714844 C 15.46875 8.304688 15.148438 7.96875 14.726562 7.9375 L 14.496094 7.921875 L 14.472656 7.738281 C 14.257812 5.953125 13.03125 4.464844 11.339844 3.929688 C 10.855469 3.777344 10.105469 3.691406 9.667969 3.734375 Z M 10.796875 4.402344 C 11.988281 4.632812 13.117188 5.5625 13.589844 6.699219 C 13.71875 7.003906 13.84375 7.46875 13.878906 7.761719 L 13.898438 7.929688 L 11.203125 7.929688 C 9.523438 7.929688 8.484375 7.945312 8.4375 7.96875 C 8.324219 8.03125 8.273438 8.230469 8.339844 8.359375 C 8.371094 8.417969 8.425781 8.476562 8.457031 8.492188 C 8.492188 8.503906 9.917969 8.515625 11.625 8.515625 C 14.675781 8.515625 14.726562 8.515625 14.804688 8.59375 C 14.847656 8.636719 14.882812 8.714844 14.882812 8.765625 C 14.882812 8.851562 14.867188 8.855469 14.523438 8.882812 C 14.328125 8.894531 12.132812 8.90625 9.640625 8.90625 L 5.117188 8.90625 L 5.117188 8.78125 C 5.117188 8.714844 5.144531 8.625 5.183594 8.585938 C 5.242188 8.519531 5.332031 8.515625 6.378906 8.515625 C 7.492188 8.515625 7.515625 8.515625 7.605469 8.429688 C 7.722656 8.320312 7.722656 8.140625 7.609375 8.019531 C 7.527344 7.933594 7.507812 7.929688 6.804688 7.929688 L 6.085938 7.929688 L 6.109375 7.820312 C 6.121094 7.761719 6.140625 7.636719 6.15625 7.539062 C 6.195312 7.261719 6.363281 6.765625 6.523438 6.445312 C 6.925781 5.644531 7.691406 4.945312 8.535156 4.605469 C 9.273438 4.308594 9.992188 4.242188 10.796875 4.402344 Z M 17.023438 9.554688 C 18.0625 9.769531 18.914062 10.511719 19.230469 11.484375 C 19.285156 11.644531 19.339844 11.851562 19.355469 11.941406 L 19.382812 12.109375 L 10.003906 12.109375 C 1.097656 12.109375 0.625 12.105469 0.625 12.039062 C 0.625 11.894531 0.746094 11.472656 0.855469 11.234375 C 1.269531 10.316406 2.101562 9.691406 3.125 9.519531 C 3.179688 9.511719 6.261719 9.5 9.972656 9.496094 C 16.003906 9.492188 16.753906 9.5 17.023438 9.554688 Z M 14.53125 14.375 L 14.53125 14.726562 L 13.566406 14.726562 L 13.542969 14.484375 C 13.523438 14.285156 13.503906 14.222656 13.417969 14.152344 C 13.304688 14.050781 13.25 14.042969 13.113281 14.105469 C 12.988281 14.164062 12.929688 14.296875 12.929688 14.53125 L 12.929688 14.726562 L 10.320312 14.726562 L 10.304688 14.484375 C 10.289062 14.285156 10.269531 14.230469 10.179688 14.152344 C 10.121094 14.105469 10.039062 14.0625 10 14.0625 C 9.960938 14.0625 9.878906 14.105469 9.820312 14.152344 C 9.730469 14.230469 9.710938 14.285156 9.695312 14.484375 L 9.679688 14.726562 L 7.070312 14.726562 L 7.070312 14.53125 C 7.070312 14.296875 7.011719 14.164062 6.886719 14.105469 C 6.75 14.042969 6.695312 14.050781 6.582031 14.152344 C 6.496094 14.222656 6.476562 14.285156 6.457031 14.484375 L 6.433594 14.730469 L 5.449219 14.707031 L 5.4375 14.363281 L 5.425781 14.023438 L 14.53125 14.023438 Z M 7.34375 15.34375 C 7.34375 15.386719 7.148438 15.566406 7.035156 15.625 C 6.914062 15.6875 6.601562 15.6875 6.480469 15.625 C 6.359375 15.5625 6.25 15.46875 6.207031 15.382812 C 6.171875 15.316406 6.207031 15.3125 6.757812 15.3125 C 7.078125 15.3125 7.34375 15.328125 7.34375 15.34375 Z M 10.539062 15.398438 C 10.292969 15.765625 9.707031 15.765625 9.460938 15.398438 L 9.40625 15.3125 L 10.59375 15.3125 Z M 13.792969 15.382812 C 13.75 15.46875 13.640625 15.5625 13.519531 15.625 C 13.398438 15.6875 13.085938 15.6875 12.964844 15.625 C 12.851562 15.566406 12.65625 15.386719 12.65625 15.34375 C 12.65625 15.328125 12.921875 15.3125 13.242188 15.3125 C 13.792969 15.3125 13.828125 15.316406 13.792969 15.382812 Z M 13.792969 15.382812 "/>
<path style=" stroke:none;fill-rule:nonzero;fill:rgb(0%,0%,0%);fill-opacity:1;" d="M 3.355469 9.882812 C 2.890625 9.96875 2.535156 10.441406 2.589844 10.902344 C 2.652344 11.425781 3.105469 11.800781 3.617188 11.746094 C 4.285156 11.675781 4.667969 10.957031 4.355469 10.355469 C 4.1875 10.027344 3.734375 9.8125 3.355469 9.882812 Z M 3.765625 10.570312 C 3.976562 10.785156 3.839844 11.136719 3.542969 11.144531 C 3.226562 11.152344 3.0625 10.761719 3.300781 10.558594 C 3.441406 10.433594 3.632812 10.441406 3.765625 10.570312 Z M 3.765625 10.570312 "/>
<path style=" stroke:none;fill-rule:nonzero;fill:rgb(0%,0%,0%);fill-opacity:1;" d="M 6.570312 9.886719 C 6.1875 9.957031 5.859375 10.328125 5.828125 10.726562 C 5.796875 11.121094 6.015625 11.492188 6.386719 11.664062 C 6.847656 11.882812 7.40625 11.667969 7.621094 11.195312 C 7.714844 10.984375 7.71875 10.617188 7.621094 10.410156 C 7.449219 10.027344 7 9.804688 6.570312 9.886719 Z M 7.007812 10.570312 C 7.183594 10.75 7.128906 11.015625 6.894531 11.117188 C 6.722656 11.1875 6.542969 11.128906 6.460938 10.96875 C 6.28125 10.625 6.730469 10.296875 7.007812 10.570312 Z M 7.007812 10.570312 "/>
<path style=" stroke:none;fill-rule:nonzero;fill:rgb(0%,0%,0%);fill-opacity:1;" d="M 9.8125 9.886719 C 9.375 9.96875 9.0625 10.355469 9.0625 10.820312 C 9.0625 11.101562 9.164062 11.3125 9.386719 11.507812 C 9.765625 11.839844 10.234375 11.839844 10.613281 11.507812 C 10.835938 11.3125 10.9375 11.101562 10.9375 10.820312 C 10.9375 10.210938 10.410156 9.777344 9.8125 9.886719 Z M 10.25 10.589844 C 10.367188 10.726562 10.375 10.816406 10.292969 10.972656 C 10.132812 11.28125 9.648438 11.140625 9.648438 10.785156 C 9.648438 10.742188 9.695312 10.65625 9.75 10.589844 C 9.828125 10.492188 9.882812 10.46875 10 10.46875 C 10.117188 10.46875 10.171875 10.492188 10.25 10.589844 Z M 10.25 10.589844 "/>
<path style=" stroke:none;fill-rule:nonzero;fill:rgb(0%,0%,0%);fill-opacity:1;" d="M 13.058594 9.886719 C 12.847656 9.925781 12.703125 10.003906 12.550781 10.164062 C 12.378906 10.339844 12.304688 10.539062 12.304688 10.808594 C 12.308594 11.5 13.003906 11.953125 13.613281 11.664062 C 13.847656 11.554688 13.992188 11.40625 14.097656 11.171875 C 14.402344 10.496094 13.800781 9.75 13.058594 9.886719 Z M 13.429688 10.53125 C 13.648438 10.683594 13.613281 11.015625 13.375 11.117188 C 13.023438 11.265625 12.726562 10.839844 12.992188 10.570312 C 13.113281 10.453125 13.292969 10.433594 13.429688 10.53125 Z M 13.429688 10.53125 "/>
<path style=" stroke:none;fill-rule:nonzero;fill:rgb(0%,0%,0%);fill-opacity:1;" d="M 16.300781 9.886719 C 16.09375 9.925781 15.988281 9.976562 15.828125 10.132812 C 15.242188 10.679688 15.582031 11.664062 16.382812 11.746094 C 17.386719 11.851562 17.8125 10.464844 16.925781 9.992188 C 16.707031 9.875 16.527344 9.84375 16.300781 9.886719 Z M 16.699219 10.566406 C 16.921875 10.785156 16.769531 11.152344 16.457031 11.144531 C 16.269531 11.140625 16.132812 10.992188 16.132812 10.796875 C 16.132812 10.507812 16.496094 10.359375 16.699219 10.566406 Z M 16.699219 10.566406 "/>
</g>
</svg>
